<svg xmlns="http://www.w3.org/2000/svg" width="77" height="36" viewBox="0 0 77 36"><g transform="translate(-237 -115)"><g transform="translate(237 115)"><path d="M22,0,0,36H6L27,0Z" fill="#f5f5f5"/><path d="M32,0,10,36h6L37,0Z" fill="#f5f5f5"/><path d="M42,0,20,36h6L47,0Z" fill="#f5f5f5"/><path d="M52,0,30,36h6L57,0Z" fill="#f5f5f5"/><path d="M72,0,50,36h6L77,0Z" fill="#f5f5f5"/><path d="M52,1" fill="#f5f5f5"/><rect width="19" height="6" transform="translate(54)" fill="#f5f5f5"/><rect width="19" height="6" transform="translate(34 30)" fill="#f5f5f5"/></g><path d="M290,151H267l22-36h25l-21,36Zm-13.5-6H290v1.092L305.333,121H291v-.858ZM257,151l22-36h5l-21,36Zm-10,0,22-36h5l-21,36Zm-10,0,22-36h5l-21,36Z" fill="#febf34"/></g></svg>