<svg xmlns="http://www.w3.org/2000/svg" width="59.978" height="61.773" viewBox="0 0 59.978 61.773">
  <g id="farmer_1_" data-name="farmer (1)" transform="translate(-6.828)">
    <path id="Path_55" data-name="Path 55" d="M171.086,301.164a.994.994,0,0,0-.2-.165,21.507,21.507,0,0,0-5.673-3.269.966.966,0,0,0-.168-.064,21.367,21.367,0,0,0-6.776-1.363.983.983,0,0,0-1.6,0,21.369,21.369,0,0,0-6.776,1.363.983.983,0,0,0-.168.064A21.512,21.512,0,0,0,144.049,301a.992.992,0,0,0-.205.165,21.469,21.469,0,0,0-7.882,16.626.986.986,0,1,0,1.971,0,19.468,19.468,0,0,1,5.639-13.715v13.5a.986.986,0,0,0,1.971,0V302.33a19.569,19.569,0,0,1,3.624-2.218V308.4a.986.986,0,0,0,.986.986h14.622a.986.986,0,0,0,.986-.986v-8.292a19.558,19.558,0,0,1,3.624,2.218v15.248a.986.986,0,0,0,1.971,0v-13.5A19.467,19.467,0,0,1,177,317.79a.986.986,0,1,0,1.971,0A21.471,21.471,0,0,0,171.086,301.164Zm-19.947,6.253v-8.107a19.412,19.412,0,0,1,5.34-1.027v2.538a.986.986,0,1,0,1.971,0v-2.538a19.417,19.417,0,0,1,5.34,1.027v8.107Z" transform="translate(-112.162 -257.003)" fill="#9ec542"/>
    <path id="Path_56" data-name="Path 56" d="M26.654,18.835V.986a.986.986,0,0,0-1.971,0V17.849H20.7V.986a.986.986,0,1,0-1.971,0V17.849h-3.98V.986a.986.986,0,1,0-1.971,0V17.849H8.8V.986a.986.986,0,0,0-1.971,0V18.835a5.1,5.1,0,0,0,5.1,5.1h3.831V60.787a.986.986,0,1,0,1.971,0V23.932h3.831A5.1,5.1,0,0,0,26.654,18.835ZM8.96,19.82H24.523a3.13,3.13,0,0,1-2.965,2.14H11.925A3.13,3.13,0,0,1,8.96,19.82Z" fill="#9ec542"/>
    <path id="Path_57" data-name="Path 57" d="M174.381,88.713h4.407c-.035.362-.053.726-.053,1.09a11.244,11.244,0,1,0,22.489,0c0-.364-.019-.728-.054-1.09h4.37a.986.986,0,0,0,0-1.971H200.8l-2.288-9.508a3.429,3.429,0,0,0-4.344-2.5l-4.088,1.224-4.088-1.224a3.475,3.475,0,0,0-4.38,2.474l-2.449,9.533h-4.785a.986.986,0,0,0,0,1.972Zm9.863-11.962a1.507,1.507,0,0,1,1.184-.127l4.371,1.309a.986.986,0,0,0,.566,0l4.371-1.309a1.458,1.458,0,0,1,1.862,1.071l2.177,9.047H181.2l2.323-9.042A1.508,1.508,0,0,1,184.245,76.751ZM199.252,89.8a9.273,9.273,0,1,1-18.546,0,9.388,9.388,0,0,1,.066-1.09h18.414A9.393,9.393,0,0,1,199.252,89.8Z" transform="translate(-144.676 -64.782)" fill="#9ec542"/>
    <path id="Path_58" data-name="Path 58" d="M295.476,413.58h-8.05a.986.986,0,1,0,0,1.971h8.05a.986.986,0,0,0,0-1.971Z" transform="translate(-242.862 -359.222)" fill="#9ec542"/>
    <path id="Path_59" data-name="Path 59" d="M240.054,413.58h-2.629a.986.986,0,1,0,0,1.971h2.629a.986.986,0,1,0,0-1.971Z" transform="translate(-199.434 -359.222)" fill="#9ec542"/>
  </g>
</svg>
