<svg xmlns="http://www.w3.org/2000/svg" width="61.773" height="61.773" viewBox="0 0 61.773 61.773">
  <g id="tractor_1_" data-name="tractor (1)" transform="translate(0)">
    <path id="Path_50" data-name="Path 50" d="M48,357.978A5.978,5.978,0,1,0,53.978,352,5.984,5.984,0,0,0,48,357.978Zm5.978-3.985a3.985,3.985,0,1,1-3.985,3.985A3.989,3.989,0,0,1,53.978,353.993Zm0,0" transform="translate(-42.022 -308.161)" fill="#9ec542"/>
    <path id="Path_51" data-name="Path 51" d="M357.978,363.956A5.978,5.978,0,1,0,352,357.978,5.984,5.984,0,0,0,357.978,363.956Zm0-9.963a3.985,3.985,0,1,1-3.985,3.985A3.989,3.989,0,0,1,357.978,353.993Zm0,0" transform="translate(-308.161 -308.161)" fill="#9ec542"/>
    <path id="Path_52" data-name="Path 52" d="M328,248h3.985v1.993H328Zm0,0" transform="translate(-287.15 -217.114)" fill="#9ec542"/>
    <path id="Path_53" data-name="Path 53" d="M328,280h3.985v1.993H328Zm0,0" transform="translate(-287.15 -245.128)" fill="#9ec542"/>
    <path id="Path_54" data-name="Path 54" d="M61.773,5.978V0H54.8a4.988,4.988,0,0,0-4.982,4.982V27.618l-1.893-.473L44.139,12.952h.7a2,2,0,0,0,1.993-1.993V7.971a2.993,2.993,0,0,0-2.989-2.989H5.978A2.993,2.993,0,0,0,2.989,7.971V10.96a2,2,0,0,0,1.993,1.993h.928L5.045,25.9H3.985A2,2,0,0,0,1.993,27.9V43.222A11.947,11.947,0,1,0,23.215,53.8h1.694v1A2.993,2.993,0,0,0,27.9,57.788h5.978A2.993,2.993,0,0,0,36.865,54.8v-1h1.694A11.947,11.947,0,1,0,59.78,43.222V34a4.976,4.976,0,0,0-3.774-4.833l-.211-.053V5.978ZM54.8,1.993H59.78V3.985H55.795A2,2,0,0,0,53.8,5.978V22.916H51.81V4.982A2.993,2.993,0,0,1,54.8,1.993Zm-9.084,24.6-2.061-.515-3.5-13.125h1.924Zm-8.16,2.1-3.3-1.32,1.509-3.017-1.783-.892L30,31.436l1.783.892,1.582-3.165,3.562,1.425a5.43,5.43,0,0,0-.058.749v7.52H25.9V27.9A2,2,0,0,0,23.912,25.9V12.952h14.18l3.469,13.008a5.441,5.441,0,0,0-4.006,2.734ZM17.934,12.952V25.9H11.028l.864-12.952Zm1.993,0h1.993V25.9H19.927ZM4.982,7.971a1,1,0,0,1,1-1H43.839a1,1,0,0,1,1,1l0,2.989H4.982Zm2.925,4.982H9.895L9.031,25.9H7.043Zm5.045,28.894V39.9a9.918,9.918,0,0,1,5.3,2.2l-1.369,1.369L18.3,44.885l1.369-1.369a9.918,9.918,0,0,1,2.2,5.3H19.927v1.993h1.942a9.918,9.918,0,0,1-2.2,5.3L18.3,54.749l-1.408,1.408,1.369,1.369a9.918,9.918,0,0,1-5.3,2.2V57.788H10.96V59.73a9.918,9.918,0,0,1-5.3-2.2l1.369-1.369L5.616,54.749,4.247,56.118a9.918,9.918,0,0,1-2.2-5.3H3.985V48.821H2.043a9.918,9.918,0,0,1,2.2-5.3l1.369,1.369,1.408-1.408L5.655,42.108a9.918,9.918,0,0,1,5.3-2.2v1.942ZM34.872,54.8a1,1,0,0,1-1,1H27.9a1,1,0,0,1-1-1v-1h7.971ZM23.732,51.81a11.09,11.09,0,0,0,0-3.985H38.04a11.12,11.12,0,0,0,0,3.985Zm18.376-8.294,1.369,1.369,1.408-1.408-1.369-1.369a9.918,9.918,0,0,1,5.3-2.2v1.942h1.993V39.9a9.918,9.918,0,0,1,5.3,2.2l-1.369,1.369,1.408,1.408,1.369-1.369a9.918,9.918,0,0,1,2.2,5.3H57.788v1.993H59.73a9.918,9.918,0,0,1-2.2,5.3l-1.369-1.369-1.408,1.408,1.369,1.369a9.918,9.918,0,0,1-5.3,2.2V57.788H48.821V59.73a9.918,9.918,0,0,1-5.3-2.2l1.369-1.369-1.408-1.408-1.369,1.369a9.918,9.918,0,0,1-2.2-5.3h1.942V48.821H39.9A9.918,9.918,0,0,1,42.107,43.516ZM57.788,34v6.933a11.918,11.918,0,0,0-19.229,4.9H23.215a11.918,11.918,0,0,0-19.229-4.9V27.9H23.912v10.96A2,2,0,0,0,25.9,40.85h10.96a2,2,0,0,0,1.993-1.993v-7.52A3.444,3.444,0,0,1,42.3,27.9a3.481,3.481,0,0,1,.834.1l12.392,3.1A2.987,2.987,0,0,1,57.788,34ZM51.81,28.116V24.909H53.8v3.706Zm0,0" fill="#9ec542"/>
  </g>
</svg>
