<svg xmlns="http://www.w3.org/2000/svg" width="52.351" height="61.773" viewBox="0 0 52.351 61.773">
  <g id="shopping-bag_1_" data-name="shopping-bag (1)" transform="translate(-15.359)">
    <g id="Group_16" data-name="Group 16" transform="translate(34.141)">
      <g id="Group_15" data-name="Group 15" transform="translate(0)">
        <path id="Path_41" data-name="Path 41" d="M92.795,7.633a8.9,8.9,0,0,0-16-3.978,1.047,1.047,0,1,0,1.69,1.235A6.807,6.807,0,0,1,90.722,7.929a1.048,1.048,0,0,0,1.036.9,1.121,1.121,0,0,0,.149-.01A1.047,1.047,0,0,0,92.795,7.633Z" transform="translate(-76.593)" fill="#9ec542"/>
      </g>
    </g>
    <g id="Group_18" data-name="Group 18" transform="translate(17.452 13.611)">
      <g id="Group_17" data-name="Group 17">
        <path id="Path_42" data-name="Path 42" d="M70.2,50.115,67.057,44.88a1.046,1.046,0,0,0-.9-.508h-3.01a1.047,1.047,0,0,0,0,2.094h2.417l1.885,3.141H25.081l1.885-3.141h1.109a1.047,1.047,0,1,0,0-2.094h-1.7a1.046,1.046,0,0,0-.9.508l-3.141,5.235a1.047,1.047,0,0,0,.9,1.586H69.3a1.047,1.047,0,0,0,.9-1.586Z" transform="translate(-22.185 -44.372)" fill="#9ec542"/>
      </g>
    </g>
    <g id="Group_20" data-name="Group 20" transform="translate(42.96 5.867)">
      <g id="Group_19" data-name="Group 19">
        <path id="Path_43" data-name="Path 43" d="M122.629,22.959a1.045,1.045,0,0,0-.651-.467l-14.273-3.338a1.046,1.046,0,0,0-1.258.781l-1.076,4.6a1.047,1.047,0,0,0,2.039.476l.838-3.581,12.234,2.862-1.922,8.219a1.046,1.046,0,0,0,.781,1.257,1.059,1.059,0,0,0,.24.028,1.045,1.045,0,0,0,1.018-.808l2.161-9.238A1.043,1.043,0,0,0,122.629,22.959Z" transform="translate(-105.343 -19.126)" fill="#9ec542"/>
      </g>
    </g>
    <g id="Group_22" data-name="Group 22" transform="translate(21.535 3.182)">
      <g id="Group_21" data-name="Group 21" transform="translate(0)">
        <path id="Path_44" data-name="Path 44" d="M56.046,19.367,55.092,11.3a1.048,1.048,0,0,0-1.163-.917l-17.512,2.07a1.047,1.047,0,0,0-.917,1.163l1.59,13.457A1.047,1.047,0,0,0,38.13,28a1.144,1.144,0,0,0,.125-.007,1.048,1.048,0,0,0,.917-1.163L37.7,14.407l15.432-1.824.831,7.029a1.047,1.047,0,0,0,2.08-.245Z" transform="translate(-35.494 -10.374)" fill="#9ec542"/>
      </g>
    </g>
    <g id="Group_24" data-name="Group 24" transform="translate(29.358 10.052)">
      <g id="Group_23" data-name="Group 23">
        <path id="Path_45" data-name="Path 45" d="M82.007,42.213l-2.078-8.642a1.046,1.046,0,0,0-1.263-.773L61.8,36.854a1.047,1.047,0,0,0-.773,1.263l1.039,4.319a1.047,1.047,0,1,0,2.036-.49l-.794-3.3,14.831-3.566L79.97,42.7a1.047,1.047,0,0,0,2.036-.49Z" transform="translate(-60.997 -32.769)" fill="#9ec542"/>
      </g>
    </g>
    <g id="Group_26" data-name="Group 26" transform="translate(15.359 18.846)">
      <g id="Group_25" data-name="Group 25">
        <path id="Path_46" data-name="Path 46" d="M65.614,62.434a1.047,1.047,0,0,0-1.046-.993H18.5a1.047,1.047,0,0,0-1.046.993L15.36,103.267a1.047,1.047,0,0,0,1.046,1.1H66.661a1.047,1.047,0,0,0,1.047-1.1ZM17.507,102.274l1.987-38.739H63.573l1.987,38.739Z" transform="translate(-15.359 -61.441)" fill="#9ec542"/>
      </g>
    </g>
    <g id="Group_28" data-name="Group 28" transform="translate(46.245 23.034)">
      <g id="Group_27" data-name="Group 27">
        <path id="Path_47" data-name="Path 47" d="M119.193,75.093a3.141,3.141,0,1,0,3.141,3.141A3.144,3.144,0,0,0,119.193,75.093Zm0,4.188a1.047,1.047,0,1,1,1.047-1.047A1.048,1.048,0,0,1,119.193,79.281Z" transform="translate(-116.052 -75.093)" fill="#9ec542"/>
      </g>
    </g>
    <g id="Group_30" data-name="Group 30" transform="translate(30.54 23.034)">
      <g id="Group_29" data-name="Group 29">
        <path id="Path_48" data-name="Path 48" d="M67.993,75.093a3.141,3.141,0,1,0,3.141,3.141A3.144,3.144,0,0,0,67.993,75.093Zm0,4.188a1.047,1.047,0,1,1,1.047-1.047A1.048,1.048,0,0,1,67.993,79.281Z" transform="translate(-64.852 -75.093)" fill="#9ec542"/>
      </g>
    </g>
    <g id="Group_32" data-name="Group 32" transform="translate(32.634 26.175)">
      <g id="Group_31" data-name="Group 31">
        <path id="Path_49" data-name="Path 49" d="M88.431,85.333H88.35A1.047,1.047,0,0,0,87.3,86.38a1.035,1.035,0,0,0,.081.4v5.355a6.806,6.806,0,1,1-13.611,0V86.38a1.047,1.047,0,0,0-2.094,0v5.758a8.9,8.9,0,0,0,17.8,0V86.38A1.048,1.048,0,0,0,88.431,85.333Z" transform="translate(-71.679 -85.333)" fill="#9ec542"/>
      </g>
    </g>
  </g>
</svg>
